{"glyphs":{"0":{"ha":882,"x_min":68,"x_max":814,"o":"m 271 746 l 610 746 q 814 543 814 746 l 814 203 q 610 0 814 0 l 271 0 q 68 203 68 0 l 68 543 q 271 746 68 746 m 610 678 l 271 678 q 136 543 136 678 l 136 203 q 271 68 136 68 l 610 68 q 746 203 746 68 l 746 543 q 610 678 746 678 z "},"1":{"ha":203,"x_min":68,"x_max":136,"o":"m 136 0 l 68 0 l 68 746 l 136 746 l 136 0 z "},"2":{"ha":882,"x_min":68,"x_max":814,"o":"m 271 68 l 814 68 l 814 0 l 271 0 q 68 203 68 0 q 271 407 68 407 l 610 407 q 746 543 746 407 q 610 678 746 678 l 68 678 l 68 746 l 610 746 q 814 543 814 746 q 610 339 814 339 l 271 339 q 136 203 136 339 q 271 68 136 68 z "},"3":{"ha":882,"x_min":68,"x_max":814,"o":"m 610 678 l 68 678 l 68 746 l 610 746 q 814 543 814 746 q 743 373 814 422 q 814 203 814 324 q 610 0 814 0 l 68 0 l 68 68 l 610 68 q 746 203 746 68 q 610 339 746 339 l 68 339 l 68 407 l 610 407 q 746 543 746 407 q 610 678 746 678 z "},"4":{"ha":882,"x_min":68,"x_max":814,"o":"m 746 203 l 746 0 l 678 0 l 678 203 l 271 203 q 68 407 68 203 l 68 746 l 136 746 l 136 407 q 271 271 136 271 l 678 271 l 678 746 l 746 746 l 746 271 l 814 271 l 814 203 l 746 203 z "},"5":{"ha":882,"x_min":68,"x_max":814,"o":"m 271 746 l 814 746 l 814 678 l 271 678 q 136 543 136 678 q 271 407 136 407 l 610 407 q 814 203 814 407 q 610 0 814 0 l 68 0 l 68 68 l 610 68 q 746 203 746 68 q 610 339 746 339 l 271 339 q 68 543 68 339 q 271 746 68 746 z "},"6":{"ha":882,"x_min":68,"x_max":814,"o":"m 271 68 l 610 68 q 746 203 746 68 q 610 339 746 339 l 136 339 l 136 203 q 271 68 136 68 m 610 0 l 271 0 q 68 203 68 0 l 68 543 q 271 746 68 746 l 610 746 q 814 543 814 746 l 746 543 q 610 678 746 678 l 271 678 q 136 543 136 678 l 136 407 l 610 407 q 814 203 814 407 q 610 0 814 0 z "},"7":{"ha":882,"x_min":68,"x_max":814,"o":"m 610 678 l 68 678 l 68 746 l 610 746 q 814 543 814 746 q 610 339 814 339 l 271 339 q 136 203 136 339 l 136 0 l 68 0 l 68 203 q 271 407 68 407 l 610 407 q 746 543 746 407 q 610 678 746 678 z "},"8":{"ha":882,"x_min":68,"x_max":814,"o":"m 271 68 l 610 68 q 746 203 746 68 q 610 339 746 339 l 271 339 q 136 203 136 339 q 271 68 136 68 m 271 407 l 610 407 q 746 543 746 407 q 610 678 746 678 l 271 678 q 136 543 136 678 q 271 407 136 407 m 610 0 l 271 0 q 68 203 68 0 q 139 373 68 324 q 68 543 68 422 q 271 746 68 746 l 610 746 q 814 543 814 746 q 743 373 814 422 q 814 203 814 324 q 610 0 814 0 z "},"9":{"ha":882,"x_min":68,"x_max":814,"o":"m 610 678 l 271 678 q 136 543 136 678 q 271 407 136 407 l 746 407 l 746 543 q 610 678 746 678 m 271 746 l 610 746 q 814 543 814 746 l 814 203 q 610 0 814 0 l 271 0 q 68 203 68 0 l 136 203 q 271 68 136 68 l 610 68 q 746 203 746 68 l 746 339 l 271 339 q 68 543 68 339 q 271 746 68 746 z "},"\u0000":{"ha":0,"x_min":0,"x_max":0,"o":""},"\u001d":{"ha":0,"x_min":0,"x_max":0,"o":""}," ":{"ha":345,"x_min":0,"x_max":0,"o":""}," ":{"ha":345,"x_min":0,"x_max":0,"o":""},"!":{"ha":203,"x_min":68,"x_max":136,"o":"m 136 68 l 136 0 l 68 0 l 68 68 l 136 68 m 136 203 l 68 203 l 68 746 l 136 746 l 136 203 z "},"\"":{"ha":339,"x_min":68,"x_max":271,"o":"m 136 746 l 136 543 l 68 543 l 68 746 l 136 746 m 271 746 l 271 543 l 203 543 l 203 746 l 271 746 z "},"#":{"ha":882,"x_min":68,"x_max":814,"o":"m 237 237 l 237 509 l 68 509 l 68 576 l 237 576 l 237 746 l 305 746 l 305 576 l 576 576 l 576 746 l 644 746 l 644 576 l 814 576 l 814 509 l 644 509 l 644 237 l 814 237 l 814 170 l 644 170 l 644 0 l 576 0 l 576 170 l 305 170 l 305 0 l 237 0 l 237 170 l 68 170 l 68 237 l 237 237 m 305 509 l 305 237 l 576 237 l 576 509 l 305 509 z "},"$":{"ha":882,"x_min":68,"x_max":814,"o":"m 339 746 l 543 746 l 543 814 l 610 814 l 610 746 l 814 746 l 814 678 l 610 678 l 610 407 q 814 203 814 407 q 610 0 814 0 l 610 -68 l 543 -68 l 543 0 l 339 0 l 339 -68 l 271 -68 l 271 0 l 68 0 l 68 68 l 271 68 l 271 339 q 68 543 68 339 q 271 746 68 746 l 271 814 l 339 814 l 339 746 m 610 68 q 746 203 746 68 q 610 339 746 339 l 610 68 m 271 678 q 136 543 136 678 q 271 407 136 407 l 271 678 m 339 68 l 543 68 l 543 339 l 339 339 l 339 68 m 543 678 l 339 678 l 339 407 l 543 407 l 543 678 z "},"%":{"ha":882,"x_min":68,"x_max":814,"o":"m 814 543 q 610 339 814 339 l 271 339 q 136 203 136 339 l 136 0 l 68 0 l 68 203 q 271 407 68 407 l 610 407 q 746 543 746 407 l 746 746 l 814 746 l 814 543 m 203 475 q 107 514 147 475 q 68 610 68 554 q 107 706 68 667 q 203 746 147 746 q 299 706 260 746 q 339 610 339 667 q 299 514 339 554 q 203 475 260 475 m 203 543 q 251 563 231 543 q 271 610 271 583 q 251 658 271 638 q 203 678 231 678 q 156 658 176 678 q 136 610 136 638 q 156 563 136 583 q 203 543 176 543 m 678 0 q 582 40 622 0 q 543 136 543 79 q 582 232 543 192 q 678 271 622 271 q 774 232 734 271 q 814 136 814 192 q 774 40 814 79 q 678 0 734 0 m 678 68 q 726 88 706 68 q 746 136 746 108 q 726 183 746 163 q 678 203 706 203 q 630 183 650 203 q 610 136 610 163 q 630 88 610 108 q 678 68 650 68 z "},"&":{"ha":882,"x_min":68,"x_max":814,"o":"m 271 746 l 407 746 l 407 678 l 271 678 q 136 543 136 678 q 271 407 136 407 l 610 407 l 610 543 l 678 543 l 678 407 l 814 407 l 814 339 l 678 339 l 678 203 q 814 68 678 68 l 814 0 q 644 71 693 0 q 475 0 595 0 l 271 0 q 68 203 68 0 q 139 373 68 324 q 68 543 68 422 q 271 746 68 746 m 271 68 l 475 68 q 610 203 610 68 l 610 339 l 271 339 q 136 203 136 339 q 271 68 136 68 z "},"'":{"ha":203,"x_min":68,"x_max":136,"o":"m 136 746 l 136 543 l 68 543 l 68 746 l 136 746 z "},"(":{"ha":475,"x_min":68,"x_max":407,"o":"m 271 814 l 407 814 l 407 746 l 271 746 q 136 610 136 746 l 136 136 q 271 0 136 0 l 407 0 l 407 -68 l 271 -68 q 68 136 68 -68 l 68 610 q 271 814 68 814 z "},")":{"ha":475,"x_min":68,"x_max":407,"o":"m 203 -68 l 68 -68 l 68 0 l 203 0 q 339 136 339 0 l 339 610 q 203 746 339 746 l 68 746 l 68 814 l 203 814 q 407 610 407 814 l 407 136 q 203 -68 407 -68 z "},"*":{"ha":543,"x_min":49,"x_max":494,"o":"m 305 450 l 305 271 l 237 271 l 237 450 l 83 361 l 49 419 l 204 509 l 49 598 l 83 656 l 237 567 l 237 746 l 305 746 l 305 567 l 460 656 l 494 598 l 338 509 l 494 419 l 460 361 l 305 450 z "},"+":{"ha":610,"x_min":68,"x_max":543,"o":"m 339 407 l 543 407 l 543 339 l 339 339 l 339 136 l 271 136 l 271 339 l 68 339 l 68 407 l 271 407 l 271 610 l 339 610 l 339 407 z "},",":{"ha":203,"x_min":68,"x_max":136,"o":"m 136 68 l 136 -136 l 68 -136 l 68 68 l 136 68 z "},"-":{"ha":610,"x_min":68,"x_max":543,"o":"m 543 339 l 68 339 l 68 407 l 543 407 l 543 339 z "},"­":{"ha":610,"x_min":68,"x_max":543,"o":"m 543 339 l 68 339 l 68 407 l 543 407 l 543 339 z "},".":{"ha":203,"x_min":68,"x_max":136,"o":"m 136 68 l 136 0 l 68 0 l 68 68 l 136 68 z "},"/":{"ha":882,"x_min":68,"x_max":814,"o":"m 814 543 q 610 339 814 339 l 271 339 q 136 203 136 339 l 136 0 l 68 0 l 68 203 q 271 407 68 407 l 610 407 q 746 543 746 407 l 746 746 l 814 746 l 814 543 z "},":":{"ha":203,"x_min":68,"x_max":136,"o":"m 136 68 l 136 0 l 68 0 l 68 68 l 136 68 m 136 610 l 136 543 l 68 543 l 68 610 l 136 610 z "},";":{"ha":203,"x_min":68,"x_max":136,"o":"m 136 68 l 136 -136 l 68 -136 l 68 68 l 136 68 m 136 610 l 136 543 l 68 543 l 68 610 l 136 610 z "},";":{"ha":203,"x_min":68,"x_max":136,"o":"m 136 68 l 136 -136 l 68 -136 l 68 68 l 136 68 m 136 610 l 136 543 l 68 543 l 68 610 l 136 610 z "},"<":{"ha":407,"x_min":68,"x_max":339,"o":"m 68 412 l 339 563 l 339 485 l 134 374 l 339 261 l 339 183 l 68 336 l 68 412 z "},"=":{"ha":610,"x_min":68,"x_max":543,"o":"m 543 237 l 68 237 l 68 305 l 543 305 l 543 237 m 543 441 l 68 441 l 68 509 l 543 509 l 543 441 z "},">":{"ha":407,"x_min":68,"x_max":339,"o":"m 339 412 l 339 336 l 68 183 l 68 261 l 273 374 l 68 485 l 68 563 l 339 412 z "},"?":{"ha":882,"x_min":68,"x_max":814,"o":"m 610 678 l 68 678 l 68 746 l 610 746 q 814 543 814 746 q 610 339 814 339 l 407 339 q 271 203 271 339 l 203 203 q 407 407 203 407 l 610 407 q 746 543 746 407 q 610 678 746 678 m 203 68 l 271 68 l 271 0 l 203 0 l 203 68 z "},"@":{"ha":882,"x_min":68,"x_max":814,"o":"m 475 475 l 407 475 q 339 407 339 475 l 339 373 l 543 373 l 543 407 q 475 475 543 475 m 407 543 l 475 543 q 610 407 610 543 l 610 203 l 543 203 l 543 305 l 339 305 l 339 203 l 271 203 l 271 407 q 407 543 271 543 m 610 678 l 271 678 q 136 543 136 678 l 136 203 q 271 68 136 68 l 610 68 q 746 203 746 68 l 746 543 q 610 678 746 678 m 271 746 l 610 746 q 814 543 814 746 l 814 203 q 610 0 814 0 l 271 0 q 68 203 68 0 l 68 543 q 271 746 68 746 z "},"A":{"ha":882,"x_min":68,"x_max":814,"o":"m 271 746 l 610 746 q 814 543 814 746 l 814 0 l 746 0 l 746 305 l 136 305 l 136 0 l 68 0 l 68 543 q 271 746 68 746 m 610 678 l 271 678 q 136 543 136 678 l 136 373 l 746 373 l 746 543 q 610 678 746 678 z "},"B":{"ha":882,"x_min":68,"x_max":814,"o":"m 610 746 q 814 543 814 746 q 743 373 814 422 q 814 203 814 324 q 610 0 814 0 l 68 0 l 68 746 l 610 746 m 136 339 l 136 68 l 610 68 q 746 203 746 68 q 610 339 746 339 l 136 339 m 610 678 l 136 678 l 136 407 l 610 407 q 746 543 746 407 q 610 678 746 678 z "},"C":{"ha":882,"x_min":68,"x_max":814,"o":"m 271 746 l 814 746 l 814 678 l 271 678 q 136 543 136 678 l 136 203 q 271 68 136 68 l 814 68 l 814 0 l 271 0 q 68 203 68 0 l 68 543 q 271 746 68 746 z "},"D":{"ha":882,"x_min":68,"x_max":814,"o":"m 610 746 q 814 543 814 746 l 814 203 q 610 0 814 0 l 68 0 l 68 746 l 610 746 m 610 678 l 136 678 l 136 68 l 610 68 q 746 203 746 68 l 746 543 q 610 678 746 678 z "},"E":{"ha":882,"x_min":68,"x_max":814,"o":"m 814 746 l 814 678 l 136 678 l 136 407 l 814 407 l 814 339 l 136 339 l 136 68 l 814 68 l 814 0 l 68 0 l 68 746 l 814 746 z "},"F":{"ha":882,"x_min":68,"x_max":814,"o":"m 814 746 l 814 678 l 136 678 l 136 407 l 814 407 l 814 339 l 136 339 l 136 0 l 68 0 l 68 746 l 814 746 z "},"G":{"ha":882,"x_min":68,"x_max":814,"o":"m 271 746 l 814 746 l 814 678 l 271 678 q 136 543 136 678 l 136 203 q 271 68 136 68 l 746 68 l 746 339 l 407 339 l 407 407 l 814 407 l 814 0 l 271 0 q 68 203 68 0 l 68 543 q 271 746 68 746 z "},"H":{"ha":882,"x_min":68,"x_max":814,"o":"m 136 339 l 136 0 l 68 0 l 68 746 l 136 746 l 136 407 l 746 407 l 746 746 l 814 746 l 814 0 l 746 0 l 746 339 l 136 339 z "},"I":{"ha":203,"x_min":68,"x_max":136,"o":"m 136 0 l 68 0 l 68 746 l 136 746 l 136 0 z "},"J":{"ha":882,"x_min":68,"x_max":814,"o":"m 68 203 l 68 271 l 136 271 l 136 203 q 271 68 136 68 l 610 68 q 746 203 746 68 l 746 746 l 814 746 l 814 203 q 610 0 814 0 l 271 0 q 68 203 68 0 z "},"K":{"ha":882,"x_min":68,"x_max":814,"o":"m 136 339 l 136 0 l 68 0 l 68 746 l 136 746 l 136 407 l 610 407 q 746 543 746 407 l 746 746 l 814 746 l 814 543 q 743 373 814 422 q 814 203 814 324 l 814 0 l 746 0 l 746 203 q 610 339 746 339 l 136 339 z "},"L":{"ha":882,"x_min":68,"x_max":814,"o":"m 68 746 l 136 746 l 136 68 l 814 68 l 814 0 l 68 0 l 68 746 z "},"M":{"ha":1153,"x_min":68,"x_max":1085,"o":"m 136 543 l 136 0 l 68 0 l 68 543 q 271 746 68 746 l 407 746 q 576 675 528 746 q 746 746 625 746 l 882 746 q 1085 543 1085 746 l 1085 0 l 1017 0 l 1017 543 q 882 678 1017 678 l 746 678 q 610 543 610 678 l 610 0 l 543 0 l 543 543 q 407 678 543 678 l 271 678 q 136 543 136 678 z "},"N":{"ha":882,"x_min":68,"x_max":814,"o":"m 136 543 l 136 0 l 68 0 l 68 543 q 271 746 68 746 l 610 746 q 814 543 814 746 l 814 0 l 746 0 l 746 543 q 610 678 746 678 l 271 678 q 136 543 136 678 z "},"O":{"ha":882,"x_min":68,"x_max":814,"o":"m 271 746 l 610 746 q 814 543 814 746 l 814 203 q 610 0 814 0 l 271 0 q 68 203 68 0 l 68 543 q 271 746 68 746 m 610 678 l 271 678 q 136 543 136 678 l 136 203 q 271 68 136 68 l 610 68 q 746 203 746 68 l 746 543 q 610 678 746 678 z "},"P":{"ha":882,"x_min":68,"x_max":814,"o":"m 610 746 q 814 543 814 746 q 610 339 814 339 l 136 339 l 136 0 l 68 0 l 68 746 l 610 746 m 610 678 l 136 678 l 136 407 l 610 407 q 746 543 746 407 q 610 678 746 678 z "},"Q":{"ha":882,"x_min":68,"x_max":814,"o":"m 271 746 l 610 746 q 814 543 814 746 l 814 203 q 610 0 814 0 l 475 0 l 475 -136 l 407 -136 l 407 0 l 271 0 q 68 203 68 0 l 68 543 q 271 746 68 746 m 610 678 l 271 678 q 136 543 136 678 l 136 203 q 271 68 136 68 l 407 68 l 407 203 l 475 203 l 475 68 l 610 68 q 746 203 746 68 l 746 543 q 610 678 746 678 z "},"R":{"ha":882,"x_min":68,"x_max":814,"o":"m 610 746 q 814 543 814 746 q 743 373 814 422 q 814 203 814 324 l 814 0 l 746 0 l 746 203 q 610 339 746 339 l 136 339 l 136 0 l 68 0 l 68 746 l 610 746 m 610 678 l 136 678 l 136 407 l 610 407 q 746 543 746 407 q 610 678 746 678 z "},"S":{"ha":882,"x_min":68,"x_max":814,"o":"m 271 746 l 814 746 l 814 678 l 271 678 q 136 543 136 678 q 271 407 136 407 l 610 407 q 814 203 814 407 q 610 0 814 0 l 68 0 l 68 68 l 610 68 q 746 203 746 68 q 610 339 746 339 l 271 339 q 68 543 68 339 q 271 746 68 746 z "},"T":{"ha":882,"x_min":68,"x_max":814,"o":"m 814 746 l 814 678 l 475 678 l 475 0 l 407 0 l 407 678 l 68 678 l 68 746 l 814 746 z "},"U":{"ha":882,"x_min":68,"x_max":814,"o":"m 68 203 l 68 746 l 136 746 l 136 203 q 271 68 136 68 l 610 68 q 746 203 746 68 l 746 746 l 814 746 l 814 203 q 610 0 814 0 l 271 0 q 68 203 68 0 z "},"V":{"ha":882,"x_min":68,"x_max":814,"o":"m 68 170 l 68 746 l 136 746 l 136 170 q 271 47 136 47 l 610 88 q 746 237 746 109 l 746 746 l 814 746 l 814 237 q 610 20 814 41 l 271 -20 q 68 170 68 -20 z "},"W":{"ha":1153,"x_min":68,"x_max":1085,"o":"m 1017 203 l 1017 746 l 1085 746 l 1085 203 q 882 0 1085 0 l 746 0 q 576 71 625 0 q 407 0 528 0 l 271 0 q 68 203 68 0 l 68 746 l 136 746 l 136 203 q 271 68 136 68 l 407 68 q 543 203 543 68 l 543 746 l 610 746 l 610 203 q 746 68 610 68 l 882 68 q 1017 203 1017 68 z "},"X":{"ha":882,"x_min":68,"x_max":814,"o":"m 746 543 l 746 746 l 814 746 l 814 543 q 743 373 814 422 q 814 203 814 324 l 814 0 l 746 0 l 746 203 q 610 339 746 339 l 271 339 q 136 203 136 339 l 136 0 l 68 0 l 68 203 q 139 373 68 324 q 68 543 68 422 l 68 746 l 136 746 l 136 543 q 271 407 136 407 l 610 407 q 746 543 746 407 z "},"Y":{"ha":882,"x_min":68,"x_max":814,"o":"m 68 543 l 68 746 l 136 746 l 136 543 q 271 407 136 407 l 610 407 q 746 543 746 407 l 746 746 l 814 746 l 814 543 q 610 339 814 339 l 475 339 l 475 0 l 407 0 l 407 339 l 271 339 q 68 543 68 339 z "},"Z":{"ha":882,"x_min":68,"x_max":814,"o":"m 271 68 l 814 68 l 814 0 l 271 0 q 68 203 68 0 q 271 407 68 407 l 610 407 q 746 543 746 407 q 610 678 746 678 l 68 678 l 68 746 l 610 746 q 814 543 814 746 q 610 339 814 339 l 271 339 q 136 203 136 339 q 271 68 136 68 z "},"[":{"ha":475,"x_min":68,"x_max":407,"o":"m 407 814 l 407 746 l 136 746 l 136 0 l 407 0 l 407 -68 l 68 -68 l 68 814 l 407 814 z "},"\\":{"ha":882,"x_min":68,"x_max":814,"o":"m 68 543 l 68 746 l 136 746 l 136 543 q 271 407 136 407 l 610 407 q 814 203 814 407 l 814 0 l 746 0 l 746 203 q 610 339 746 339 l 271 339 q 68 543 68 339 z "},"]":{"ha":475,"x_min":68,"x_max":407,"o":"m 68 -68 l 68 0 l 339 0 l 339 746 l 68 746 l 68 814 l 407 814 l 407 -68 l 68 -68 z "},"^":{"ha":203,"x_min":68,"x_max":136,"o":"m 136 746 l 136 543 l 68 543 l 68 746 l 136 746 z "},"_":{"ha":882,"x_min":68,"x_max":814,"o":"m 814 0 l 68 0 l 68 68 l 814 68 l 814 0 z "},"`":{"ha":203,"x_min":68,"x_max":136,"o":"m 136 746 l 136 543 l 68 543 l 68 746 l 136 746 z "},"a":{"ha":882,"x_min":68,"x_max":814,"o":"m 271 746 l 610 746 q 814 543 814 746 l 814 0 l 746 0 l 746 305 l 136 305 l 136 0 l 68 0 l 68 543 q 271 746 68 746 m 610 678 l 271 678 q 136 543 136 678 l 136 373 l 746 373 l 746 543 q 610 678 746 678 z "},"b":{"ha":882,"x_min":68,"x_max":814,"o":"m 610 746 q 814 543 814 746 q 743 373 814 422 q 814 203 814 324 q 610 0 814 0 l 68 0 l 68 746 l 610 746 m 136 339 l 136 68 l 610 68 q 746 203 746 68 q 610 339 746 339 l 136 339 m 610 678 l 136 678 l 136 407 l 610 407 q 746 543 746 407 q 610 678 746 678 z "},"c":{"ha":882,"x_min":68,"x_max":814,"o":"m 271 746 l 814 746 l 814 678 l 271 678 q 136 543 136 678 l 136 203 q 271 68 136 68 l 814 68 l 814 0 l 271 0 q 68 203 68 0 l 68 543 q 271 746 68 746 z "},"d":{"ha":882,"x_min":68,"x_max":814,"o":"m 610 746 q 814 543 814 746 l 814 203 q 610 0 814 0 l 68 0 l 68 746 l 610 746 m 610 678 l 136 678 l 136 68 l 610 68 q 746 203 746 68 l 746 543 q 610 678 746 678 z "},"e":{"ha":882,"x_min":68,"x_max":814,"o":"m 814 746 l 814 678 l 136 678 l 136 407 l 814 407 l 814 339 l 136 339 l 136 68 l 814 68 l 814 0 l 68 0 l 68 746 l 814 746 z "},"f":{"ha":882,"x_min":68,"x_max":814,"o":"m 814 746 l 814 678 l 136 678 l 136 407 l 814 407 l 814 339 l 136 339 l 136 0 l 68 0 l 68 746 l 814 746 z "},"g":{"ha":882,"x_min":68,"x_max":814,"o":"m 271 746 l 814 746 l 814 678 l 271 678 q 136 543 136 678 l 136 203 q 271 68 136 68 l 746 68 l 746 339 l 407 339 l 407 407 l 814 407 l 814 0 l 271 0 q 68 203 68 0 l 68 543 q 271 746 68 746 z "},"h":{"ha":882,"x_min":68,"x_max":814,"o":"m 136 339 l 136 0 l 68 0 l 68 746 l 136 746 l 136 407 l 746 407 l 746 746 l 814 746 l 814 0 l 746 0 l 746 339 l 136 339 z "},"i":{"ha":203,"x_min":68,"x_max":136,"o":"m 136 0 l 68 0 l 68 746 l 136 746 l 136 0 z "},"j":{"ha":882,"x_min":68,"x_max":814,"o":"m 68 203 l 68 271 l 136 271 l 136 203 q 271 68 136 68 l 610 68 q 746 203 746 68 l 746 746 l 814 746 l 814 203 q 610 0 814 0 l 271 0 q 68 203 68 0 z "},"k":{"ha":882,"x_min":68,"x_max":814,"o":"m 136 339 l 136 0 l 68 0 l 68 746 l 136 746 l 136 407 l 610 407 q 746 543 746 407 l 746 746 l 814 746 l 814 543 q 743 373 814 422 q 814 203 814 324 l 814 0 l 746 0 l 746 203 q 610 339 746 339 l 136 339 z "},"l":{"ha":882,"x_min":68,"x_max":814,"o":"m 68 746 l 136 746 l 136 68 l 814 68 l 814 0 l 68 0 l 68 746 z "},"m":{"ha":1153,"x_min":68,"x_max":1085,"o":"m 136 543 l 136 0 l 68 0 l 68 543 q 271 746 68 746 l 407 746 q 576 675 528 746 q 746 746 625 746 l 882 746 q 1085 543 1085 746 l 1085 0 l 1017 0 l 1017 543 q 882 678 1017 678 l 746 678 q 610 543 610 678 l 610 0 l 543 0 l 543 543 q 407 678 543 678 l 271 678 q 136 543 136 678 z "},"n":{"ha":882,"x_min":68,"x_max":814,"o":"m 136 543 l 136 0 l 68 0 l 68 543 q 271 746 68 746 l 610 746 q 814 543 814 746 l 814 0 l 746 0 l 746 543 q 610 678 746 678 l 271 678 q 136 543 136 678 z "},"o":{"ha":882,"x_min":68,"x_max":814,"o":"m 271 746 l 610 746 q 814 543 814 746 l 814 203 q 610 0 814 0 l 271 0 q 68 203 68 0 l 68 543 q 271 746 68 746 m 610 678 l 271 678 q 136 543 136 678 l 136 203 q 271 68 136 68 l 610 68 q 746 203 746 68 l 746 543 q 610 678 746 678 z "},"p":{"ha":882,"x_min":68,"x_max":814,"o":"m 610 746 q 814 543 814 746 q 610 339 814 339 l 136 339 l 136 0 l 68 0 l 68 746 l 610 746 m 610 678 l 136 678 l 136 407 l 610 407 q 746 543 746 407 q 610 678 746 678 z "},"q":{"ha":882,"x_min":68,"x_max":814,"o":"m 271 746 l 610 746 q 814 543 814 746 l 814 203 q 610 0 814 0 l 475 0 l 475 -136 l 407 -136 l 407 0 l 271 0 q 68 203 68 0 l 68 543 q 271 746 68 746 m 610 678 l 271 678 q 136 543 136 678 l 136 203 q 271 68 136 68 l 407 68 l 407 203 l 475 203 l 475 68 l 610 68 q 746 203 746 68 l 746 543 q 610 678 746 678 z "},"r":{"ha":882,"x_min":68,"x_max":814,"o":"m 610 746 q 814 543 814 746 q 743 373 814 422 q 814 203 814 324 l 814 0 l 746 0 l 746 203 q 610 339 746 339 l 136 339 l 136 0 l 68 0 l 68 746 l 610 746 m 610 678 l 136 678 l 136 407 l 610 407 q 746 543 746 407 q 610 678 746 678 z "},"s":{"ha":882,"x_min":68,"x_max":814,"o":"m 271 746 l 814 746 l 814 678 l 271 678 q 136 543 136 678 q 271 407 136 407 l 610 407 q 814 203 814 407 q 610 0 814 0 l 68 0 l 68 68 l 610 68 q 746 203 746 68 q 610 339 746 339 l 271 339 q 68 543 68 339 q 271 746 68 746 z "},"t":{"ha":882,"x_min":68,"x_max":814,"o":"m 814 746 l 814 678 l 475 678 l 475 0 l 407 0 l 407 678 l 68 678 l 68 746 l 814 746 z "},"u":{"ha":882,"x_min":68,"x_max":814,"o":"m 68 203 l 68 746 l 136 746 l 136 203 q 271 68 136 68 l 610 68 q 746 203 746 68 l 746 746 l 814 746 l 814 203 q 610 0 814 0 l 271 0 q 68 203 68 0 z "},"v":{"ha":882,"x_min":68,"x_max":814,"o":"m 68 170 l 68 746 l 136 746 l 136 170 q 271 47 136 47 l 610 88 q 746 237 746 109 l 746 746 l 814 746 l 814 237 q 610 20 814 41 l 271 -20 q 68 170 68 -20 z "},"w":{"ha":1153,"x_min":68,"x_max":1085,"o":"m 1017 203 l 1017 746 l 1085 746 l 1085 203 q 882 0 1085 0 l 746 0 q 576 71 625 0 q 407 0 528 0 l 271 0 q 68 203 68 0 l 68 746 l 136 746 l 136 203 q 271 68 136 68 l 407 68 q 543 203 543 68 l 543 746 l 610 746 l 610 203 q 746 68 610 68 l 882 68 q 1017 203 1017 68 z "},"x":{"ha":882,"x_min":68,"x_max":814,"o":"m 746 543 l 746 746 l 814 746 l 814 543 q 743 373 814 422 q 814 203 814 324 l 814 0 l 746 0 l 746 203 q 610 339 746 339 l 271 339 q 136 203 136 339 l 136 0 l 68 0 l 68 203 q 139 373 68 324 q 68 543 68 422 l 68 746 l 136 746 l 136 543 q 271 407 136 407 l 610 407 q 746 543 746 407 z "},"y":{"ha":882,"x_min":68,"x_max":814,"o":"m 68 543 l 68 746 l 136 746 l 136 543 q 271 407 136 407 l 610 407 q 746 543 746 407 l 746 746 l 814 746 l 814 543 q 610 339 814 339 l 475 339 l 475 0 l 407 0 l 407 339 l 271 339 q 68 543 68 339 z "},"z":{"ha":882,"x_min":68,"x_max":814,"o":"m 271 68 l 814 68 l 814 0 l 271 0 q 68 203 68 0 q 271 407 68 407 l 610 407 q 746 543 746 407 q 610 678 746 678 l 68 678 l 68 746 l 610 746 q 814 543 814 746 q 610 339 814 339 l 271 339 q 136 203 136 339 q 271 68 136 68 z "},"{":{"ha":475,"x_min":68,"x_max":407,"o":"m 203 610 q 407 814 203 814 l 407 746 q 271 610 271 746 l 271 543 q 200 373 271 422 q 271 203 271 324 l 271 136 q 407 0 271 0 l 407 -68 q 203 136 203 -68 l 203 203 q 68 339 203 339 l 68 407 q 203 543 203 407 l 203 610 z "},"|":{"ha":203,"x_min":68,"x_max":136,"o":"m 136 -68 l 68 -68 l 68 814 l 136 814 l 136 -68 z "},"}":{"ha":475,"x_min":68,"x_max":407,"o":"m 271 610 l 271 543 q 407 407 271 407 l 407 339 q 271 203 271 339 l 271 136 q 68 -68 271 -68 l 68 0 q 203 136 203 0 l 203 203 q 275 373 203 324 q 203 543 203 422 l 203 610 q 68 746 203 746 l 68 814 q 271 610 271 814 z "},"~":{"ha":610,"x_min":68,"x_max":543,"o":"m 543 339 l 68 339 l 68 407 l 543 407 l 543 339 z "}}}
